<?xml version="1.0" standalone="no"?><!DOCTYPE svg PUBLIC "-//W3C//DTD SVG 1.1//EN" "http://www.w3.org/Graphics/SVG/1.1/DTD/svg11.dtd"><svg t="1502248076622" class="icon" style="" viewBox="0 0 1024 1024" version="1.1" xmlns="http://www.w3.org/2000/svg" p-id="5617" xmlns:xlink="http://www.w3.org/1999/xlink" width="200" height="200"><defs><style type="text/css"></style></defs><path d="M972.032 239.334c-33.642-33.78-78.392-52.426-126.474-52.52-86.22 0-158.434 61.614-174.876 143.128L355.58 235.43c0.832-6.898 1.28-13.914 1.296-21.028 0.104-47.656-18.376-92.51-52-126.28C271.252 54.34 226.502 35.674 178.44 35.58 80.254 35.58 0.214 115.454 0.006 213.62c-0.208 98.382 79.666 178.602 178.04 178.83h0.416a177.664 177.664 0 0 0 48.012-6.582l85.982 269.182c-53.638 30.724-89.932 88.49-90.058 154.546-0.106 47.668 18.354 92.52 51.978 126.292 33.646 33.78 78.396 52.436 126.04 52.53h0.438c98.124 0 178.19-79.874 178.412-178.04 0.104-47.008-17.904-91.252-50.66-124.872l199.14-186.364c32.482 28.674 73.728 44.414 117.458 44.5h0.416c98.144 0 178.186-79.862 178.372-178.03 0.102-47.654-18.336-92.498-51.96-126.278zM178.464 377.096l-0.334-15.344c-81.458-0.188-147.582-66.612-147.394-148.07 0.166-81.28 66.394-147.404 148.018-147.404 39.478 0.082 76.54 15.53 104.374 43.498 27.834 27.958 43.126 65.094 43.042 104.562-0.188 81.28-66.456 147.414-147.706 147.414v15.344z m76.782-2.062c44.838-21.496 79.388-61.194 94.004-109.452l317.97 95.374a168.22 168.22 0 0 0-0.058 3.898c-0.088 41.272 13.788 80.436 39.35 112.128l-201.252 188.34c-30.104-21.82-66.21-33.68-104.448-33.754a177.388 177.388 0 0 0-60.254 10.496l-85.312-267.03z m145.608 582.688v15.344l-0.354-15.344c-39.458-0.084-76.52-15.532-104.374-43.488-27.834-27.958-43.124-65.104-43.02-104.572 0.166-81.268 66.438-147.392 148.04-147.392 39.478 0.082 76.542 15.528 104.374 43.496 27.832 27.97 43.146 65.094 43.04 104.542-0.206 81.28-66.478 147.414-147.706 147.414z m444.764-444.776v15.354l-0.332-15.354c-39.478-0.084-76.542-15.52-104.392-43.488-27.814-27.958-43.126-65.092-43.024-104.55 0.166-81.27 66.418-147.394 148.042-147.394 39.458 0.084 76.52 15.522 104.35 43.49 27.854 27.956 43.126 65.092 43.02 104.55-0.166 81.268-66.414 147.392-147.664 147.392z" fill="rgba(255, 255, 255, 0.1)" p-id="5618"></path></svg>