<?xml version="1.0" encoding="UTF-8"?>
<svg width="461px" height="81px" viewBox="0 0 461 81" version="1.1" xmlns="http://www.w3.org/2000/svg" xmlns:xlink="http://www.w3.org/1999/xlink">
    <!-- Generator: Sketch 44.1 (41455) - http://www.bohemiancoding.com/sketch -->
    <title>Logo White</title>
    <desc>Created with Sketch.</desc>
    <defs></defs>
    <g id="Logos" stroke="none" stroke-width="1" fill="none" fill-rule="evenodd">
        <g id="Option-3" transform="translate(-270.000000, -792.000000)" fill="#FFFFFF">
            <g id="Logo-White" transform="translate(270.000000, 792.000000)">
                <g id="Logo">
                    <path d="M139.06118,22.4121739 C139.06118,20.0330316 138.142823,17.9654746 136.306082,16.209441 C134.469341,14.4534074 131.883813,13.5754037 128.54942,13.5754037 C125.723664,13.5754037 123.491351,14.156019 121.852412,15.3172671 C120.213474,16.4785151 119.394017,18.0504249 119.394017,20.0330435 C119.394017,21.0526759 119.591817,21.9731636 119.987422,22.7945342 C120.383028,23.6159047 121.075328,24.3522949 122.064343,25.0037267 C123.053357,25.6551585 124.353186,26.2357738 125.963867,26.7455901 C127.574548,27.2554063 129.62319,27.7368921 132.109855,28.1900621 C138.326519,29.322987 143.073717,31.2206078 146.351594,33.8829814 C149.629471,36.5453549 151.268385,40.48221 151.268385,45.6936646 L151.268385,46.7132919 C151.268385,49.488958 150.773885,51.9955168 149.784871,54.2330435 C148.795856,56.4705702 147.368871,58.3823523 145.503872,59.9684472 C143.638873,61.5545421 141.378302,62.7724181 138.722091,63.6221118 C136.065881,64.4718055 133.070624,64.896646 129.736232,64.896646 C125.836689,64.896646 122.403447,64.3443533 119.436403,63.2397516 C116.469359,62.1351498 113.996859,60.6057241 112.01883,58.6514286 C110.040801,56.6971331 108.543173,54.4029945 107.525901,51.7689441 C106.508628,49.1348937 106,46.2601398 106,43.1445963 L106,40.595528 L117.189938,40.595528 L117.189938,42.6347826 C117.189938,46.2034961 118.221323,49.0499273 120.284125,51.1741615 C122.346927,53.2983957 125.554112,54.3604969 129.905777,54.3604969 C133.296684,54.3604969 135.811569,53.6241067 137.450507,52.1513043 C139.089446,50.678502 139.908903,48.9224947 139.908903,46.8832298 C139.908903,45.9202436 139.73936,44.9997559 139.400269,44.1217391 C139.061179,43.2437223 138.467779,42.4506868 137.620052,41.7426087 C136.772325,41.0345306 135.613783,40.3972699 134.144389,39.8308075 C132.674996,39.264345 130.810025,38.7828591 128.54942,38.3863354 C125.554119,37.8765192 122.813177,37.2109358 120.326511,36.3895652 C117.839846,35.5681947 115.678175,34.4777708 113.841434,33.1182609 C112.004692,31.758751 110.577707,30.0593891 109.560435,28.0201242 C108.543163,25.9808594 108.034534,23.4884619 108.034534,20.5428571 L108.034534,20.0330435 C108.034534,17.5972549 108.529034,15.3456004 109.518049,13.2780124 C110.507063,11.2104244 111.891663,9.41193311 113.671889,7.88248447 C115.452116,6.35303583 117.599658,5.16348251 120.114581,4.31378882 C122.629504,3.46409513 125.441089,3.03925466 128.54942,3.03925466 C132.053358,3.03925466 135.161643,3.53490188 137.874369,4.52621118 C140.587095,5.51752048 142.861794,6.86284865 144.698535,8.56223602 C146.535277,10.2616234 147.919877,12.2158896 148.852376,14.4250932 C149.784876,16.6342968 150.251118,18.956758 150.251118,21.3925466 L150.251118,24.4514286 L139.06118,24.4514286 L139.06118,22.4121739 Z M175.513251,37.0268323 L177.547785,37.0268323 L188.737723,21.5624845 L200.436295,21.5624845 L200.436295,22.0722981 L186.872733,41.3602484 L186.872733,42.8896894 L201.792651,63.1972671 L201.792651,63.7070807 L189.585446,63.7070807 L177.547785,47.2231056 L175.513251,47.2231056 L175.513251,63.7070807 L164.831947,63.7070807 L164.831947,4.22881988 L175.513251,4.22881988 L175.513251,37.0268323 Z M241.805156,21.5624845 L252.48646,21.5624845 L252.48646,74.0732919 C252.48646,75.9992643 251.878932,77.5853354 250.663857,78.8315528 C249.448782,80.0777702 247.880511,80.7008696 245.958997,80.7008696 L220.951181,80.7008696 L220.951181,70.5045963 L239.516305,70.5045963 C241.042213,70.5045963 241.805156,69.6549153 241.805156,67.955528 L241.805156,57.5893168 L240.279255,57.5893168 C238.414256,62.4608939 234.401743,64.896646 228.241595,64.896646 C226.150535,64.896646 224.200793,64.5567736 222.392309,63.8770186 C220.583825,63.1972637 219.001426,62.1493239 217.645063,60.7331677 C216.2887,59.3170116 215.229057,57.5468429 214.466103,55.4226087 C213.703149,53.2983745 213.321678,50.7918157 213.321678,47.9028571 L213.321678,21.5624845 L224.002982,21.5624845 L224.002982,45.6936646 C224.002982,48.6959156 224.70941,51.0325382 226.122288,52.7036025 C227.535167,54.3746667 229.654452,55.2101863 232.480208,55.2101863 C235.70157,55.2101863 238.061041,54.1764079 239.558691,52.1088199 C241.056342,50.0412319 241.805156,47.2231234 241.805156,43.6544099 L241.805156,21.5624845 Z M306.232072,48.2427329 C305.271315,53.2276026 302.996615,57.2494257 299.407905,60.308323 C295.819195,63.3672203 291.02961,64.896646 285.039007,64.896646 C281.930676,64.896646 279.034319,64.4151601 276.349851,63.4521739 C273.665383,62.4891877 271.334169,61.1013755 269.35614,59.2886957 C267.37811,57.4760158 265.823968,55.2385226 264.693666,52.5761491 C263.563363,49.9137755 262.99822,46.8832468 262.99822,43.484472 L262.99822,42.4648447 C262.99822,39.06607 263.563363,36.0072186 264.693666,33.2881988 C265.823968,30.569179 267.392239,28.2467177 269.398526,26.3207453 C271.404813,24.394773 273.750155,22.9219927 276.434623,21.9023602 C279.119091,20.8827278 281.987191,20.3729193 285.039007,20.3729193 C290.91658,20.3729193 295.677907,21.902345 299.323133,24.9612422 C302.968358,28.0201395 305.271315,32.0419627 306.232072,37.0268323 L295.720312,39.7458385 C295.381221,37.2534037 294.30745,35.1008786 292.498966,33.2881988 C290.690482,31.4755189 288.14734,30.5691925 284.869463,30.5691925 C283.343554,30.5691925 281.902441,30.8524195 280.546078,31.418882 C279.189715,31.9853444 278.002915,32.7925413 276.985643,33.8404969 C275.968371,34.8884524 275.163042,36.1629739 274.569634,37.6640994 C273.976225,39.1652249 273.679525,40.8504254 273.679525,42.7197516 L273.679525,43.2295652 C273.679525,45.0988913 273.976225,46.7557692 274.569634,48.2002484 C275.163042,49.6447277 275.968371,50.8484424 276.985643,51.8114286 C278.002915,52.7744148 279.189715,53.4966436 280.546078,53.9781366 C281.902441,54.4596297 283.343554,54.7003727 284.869463,54.7003727 C288.14734,54.7003727 290.648096,53.8790144 292.371808,52.2362733 C294.095519,50.5935322 295.211676,48.3843617 295.720312,45.6086957 L306.232072,48.2427329 Z M358.282238,43.1445963 C358.282238,46.6566635 357.688838,49.757999 356.50202,52.4486957 C355.315203,55.1393923 353.704546,57.4052082 351.670001,59.2462112 C349.635457,61.0872142 347.304243,62.4891877 344.67629,63.4521739 C342.048337,64.4151601 339.293266,64.896646 336.410995,64.896646 C333.528724,64.896646 330.773653,64.4151601 328.1457,63.4521739 C325.517747,62.4891877 323.186533,61.0872142 321.151989,59.2462112 C319.117445,57.4052082 317.506788,55.1393923 316.31997,52.4486957 C315.133153,49.757999 314.539753,46.6566635 314.539753,43.1445963 L314.539753,42.1249689 C314.539753,38.6695479 315.133153,35.5965352 316.31997,32.9058385 C317.506788,30.2151418 319.117445,27.9351646 321.151989,26.0658385 C323.186533,24.1965124 325.517747,22.7803775 328.1457,21.8173913 C330.773653,20.8544051 333.528724,20.3729193 336.410995,20.3729193 C339.293266,20.3729193 342.048337,20.8544051 344.67629,21.8173913 C347.304243,22.7803775 349.635457,24.1965124 351.670001,26.0658385 C353.704546,27.9351646 355.315203,30.2151418 356.50202,32.9058385 C357.688838,35.5965352 358.282238,38.6695479 358.282238,42.1249689 L358.282238,43.1445963 Z M336.410995,54.7003727 C337.936903,54.7003727 339.378017,54.4454684 340.73438,53.9356522 C342.090743,53.425836 343.277543,52.6894458 344.294815,51.7264596 C345.312087,50.7634734 346.117416,49.5880815 346.710824,48.2002484 C347.304233,46.8124154 347.600933,45.2405057 347.600933,43.484472 L347.600933,41.7850932 C347.600933,40.0290595 347.304233,38.4571498 346.710824,37.0693168 C346.117416,35.6814837 345.312087,34.5060918 344.294815,33.5431056 C343.277543,32.5801194 342.090743,31.8437293 340.73438,31.333913 C339.378017,30.8240968 337.936903,30.5691925 336.410995,30.5691925 C334.885087,30.5691925 333.443973,30.8240968 332.08761,31.333913 C330.731247,31.8437293 329.544447,32.5801194 328.527175,33.5431056 C327.509903,34.5060918 326.704575,35.6814837 326.111166,37.0693168 C325.517757,38.4571498 325.221057,40.0290595 325.221057,41.7850932 L325.221057,43.484472 C325.221057,45.2405057 325.517757,46.8124154 326.111166,48.2002484 C326.704575,49.5880815 327.509903,50.7634734 328.527175,51.7264596 C329.544447,52.6894458 330.731247,53.425836 332.08761,53.9356522 C333.443973,54.4454684 334.885087,54.7003727 336.410995,54.7003727 Z M369.726492,53.5108075 L383.968231,53.5108075 L383.968231,31.7587578 L370.743759,31.7587578 L370.743759,21.5624845 L394.649536,21.5624845 L394.649536,53.5108075 L406.856741,53.5108075 L406.856741,63.7070807 L369.726492,63.7070807 L369.726492,53.5108075 Z M397.277476,9.07204969 C397.277476,10.2049746 397.065547,11.2670758 396.641684,12.2583851 C396.217821,13.2496944 395.638549,14.0993753 394.903853,14.8074534 C394.169156,15.5155315 393.307313,16.0819855 392.318299,16.5068323 C391.329284,16.9316791 390.297899,17.1440994 389.224111,17.1440994 C388.093809,17.1440994 387.048295,16.9316791 386.087538,16.5068323 C385.126781,16.0819855 384.279067,15.5155315 383.54437,14.8074534 C382.809674,14.0993753 382.230402,13.2496944 381.806539,12.2583851 C381.382675,11.2670758 381.170747,10.2049746 381.170747,9.07204969 C381.170747,7.93912477 381.382675,6.87702359 381.806539,5.88571429 C382.230402,4.89440498 382.809674,4.04472404 383.54437,3.33664596 C384.279067,2.62856789 385.126781,2.06211393 386.087538,1.63726708 C387.048295,1.21242024 388.093809,1 389.224111,1 C390.297899,1 391.329284,1.21242024 392.318299,1.63726708 C393.307313,2.06211393 394.169156,2.62856789 394.903853,3.33664596 C395.638549,4.04472404 396.217821,4.89440498 396.641684,5.88571429 C397.065547,6.87702359 397.277476,7.93912477 397.277476,9.07204969 Z M431.525468,63.7070807 L420.844163,63.7070807 L420.844163,21.5624845 L431.525468,21.5624845 L431.525468,27.8501863 L433.051368,27.8501863 C434.012125,25.471044 435.566268,23.6300686 437.713843,22.327205 C439.861417,21.0243413 442.376302,20.3729193 445.258573,20.3729193 C447.293118,20.3729193 449.200475,20.6986303 450.980701,21.3500621 C452.760927,22.0014939 454.329198,23.0069497 455.685561,24.3664596 C457.041924,25.7259695 458.101567,27.4536541 458.864521,29.5495652 C459.627475,31.6454763 460.008946,34.1378738 460.008946,37.0268323 L460.008946,63.7070807 L449.327642,63.7070807 L449.327642,39.7458385 C449.327642,36.7435875 448.607085,34.3786422 447.165949,32.6509317 C445.724814,30.9232212 443.647914,30.0593789 440.935188,30.0593789 C437.770342,30.0593789 435.410871,31.1214801 433.856705,33.2457143 C432.302539,35.3699485 431.525468,38.2163797 431.525468,41.7850932 L431.525468,63.7070807 Z" id="Skycoin"></path>
                    <path d="M21.7662961,64 C10.0392453,64 0.532592292,54.4487413 0.532592292,42.6666667 C0.532592292,30.884592 10.0392453,21.3333333 21.7662961,21.3333333 C21.7662961,9.55125867 31.2729492,-7.10542736e-15 43,-7.10542736e-15 C54.7270508,-7.10542736e-15 64.2337039,9.55125867 64.2337039,21.3333333 C75.9607547,21.3333333 85.4674077,30.884592 85.4674077,42.6666667 C85.4674077,54.4487413 75.9607547,64 64.2337039,64 L21.7662961,64 Z" id="Combined-Shape"></path>
                </g>
            </g>
        </g>
    </g>
</svg>